<?xml version="1.0" encoding="UTF-8"?>
<svg width="567px" height="569px" viewBox="0 0 567 569" version="1.1" xmlns="http://www.w3.org/2000/svg" xmlns:xlink="http://www.w3.org/1999/xlink">
    <title>Shape</title>
    <g id="Page-1" stroke="none" stroke-width="1" fill="none" fill-rule="evenodd">
        <g id="Zeiss_logo" transform="translate(0.086653, 0.865505)" fill="#FFFFFF">
            <path d="M566.929051,0 L565.927406,567.800485 L561.920827,565.997541 C474.778038,526.332525 380.623735,506.219574 283.464525,506.219574 C187.276881,506.219574 94.0343993,525.932277 6.65268529,564.813456 L4.00655149,565.997541 L0,567.800485 L0,0 L566.929051,0 Z M127.208442,159.77183 L29.0475874,159.77183 L29.0475874,199.316639 L41.0672967,199.316639 L41.1046466,198.942553 L41.1046466,198.942553 L41.1706784,198.418715 L41.1706784,198.418715 L41.2483042,197.893543 L41.2483042,197.893543 L41.3155101,197.485235 L41.3155101,197.485235 L41.3963702,197.033364 L41.3963702,197.033364 L41.4919906,196.540491 L41.4919906,196.540491 L41.6034769,196.009179 L41.6034769,196.009179 L41.731935,195.44199 C41.7548204,195.344611 41.778459,195.245844 41.802874,195.145743 L41.9588632,194.529545 L41.9588632,194.529545 L42.1345887,193.883877 C42.1655824,193.773952 42.1974445,193.662906 42.2301981,193.550792 L42.4376015,192.865724 C44.8771777,185.082258 51.5253524,172.984978 69.3110436,172.630859 L70.1148841,172.622904 L82.1345934,172.532763 C80.5820441,178.382747 77.3931157,184.715945 73.7315632,190.67058 L73.0172865,191.818132 L73.0172865,191.818132 L72.2930815,192.954841 L72.2930815,192.954841 L71.5608234,194.079318 C71.1929936,194.638268 70.822847,195.19211 70.4514383,195.740063 L69.7072507,196.827888 C69.5830431,197.007807 69.4587735,197.187013 69.3344808,197.365478 L68.5887607,198.427146 L68.5887607,198.427146 L67.8443629,199.469639 L67.8443629,199.469639 L67.1031622,200.49157 L67.1031622,200.49157 L66.367034,201.491551 L66.367034,201.491551 L65.6378531,202.468192 L65.6378531,202.468192 L64.9174947,203.420105 L64.9174947,203.420105 L63.8576009,204.798573 L63.8576009,204.798573 L62.8281051,206.113592 L62.8281051,206.113592 L61.8353354,207.360477 L61.8353354,207.360477 L61.1970175,208.151567 L61.1970175,208.151567 L59.9852881,209.6311 L59.9852881,209.6311 L58.872601,210.964511 L58.872601,210.964511 L58.112106,211.861995 L58.112106,211.861995 L57.4220884,212.666352 L57.4220884,212.666352 L56.445864,213.787268 L56.445864,213.787268 L55.090268,215.302831 L55.090268,215.302831 C33.6351071,238.285104 26.8893559,258.703163 24.8347116,270.666253 L24.6801578,271.605152 L24.6801578,271.605152 L24.5444795,272.507305 L24.5444795,272.507305 L24.4265368,273.372044 C24.4082944,273.513012 24.3907434,273.652393 24.3738602,273.790173 L24.2803838,274.597532 L24.2803838,274.597532 L24.2017935,275.365801 L24.2017935,275.365801 L24.1369493,276.094309 L24.1369493,276.094309 L24.0847114,276.782385 L24.0847114,276.782385 L24.0439399,277.429361 L24.0439399,277.429361 L24.013495,278.034565 L24.013495,278.034565 L23.9846966,278.862583 L23.9846966,278.862583 L23.9726413,279.592845 L23.9726413,280.101339 L23.9817175,280.671236 L23.9817175,280.671236 L24.0089612,281.368622 L24.0089612,281.368622 L24.0393912,281.801823 L124.203535,281.801823 L124.203535,242.176876 L111.182181,242.176876 L111.146205,242.550681 L111.146205,242.550681 L111.084132,243.074126 L111.084132,243.074126 L111.012167,243.598905 L111.012167,243.598905 L110.950378,244.006905 L110.950378,244.006905 L110.876474,244.458438 L110.876474,244.458438 L110.789539,244.950941 L110.789539,244.950941 L110.688662,245.481854 L110.688662,245.481854 L110.572929,246.048617 C110.552351,246.145923 110.531117,246.244615 110.509206,246.344642 L110.369475,246.960378 C110.344784,247.065525 110.319378,247.1719 110.29324,247.279448 L110.127456,247.938395 L110.127456,247.938395 L109.943163,248.622949 L109.943163,248.622949 L109.739445,249.330549 C107.423995,257.111801 101.528328,268.499337 86.8259868,268.842628 L86.1411449,268.850576 L70.1148841,268.850576 C70.4955091,263.525659 74.6366972,255.592933 79.6254582,247.803251 L80.4197761,246.574891 L80.4197761,246.574891 L81.225633,245.351315 L81.225633,245.351315 L82.0404805,244.134929 L82.0404805,244.134929 L82.8617707,242.92814 L82.8617707,242.92814 L83.6869552,241.733353 L83.6869552,241.733353 L84.5134859,240.552975 L84.5134859,240.552975 L85.3388147,239.389413 L85.3388147,239.389413 L86.56898,237.680864 L86.56898,237.680864 L87.3801555,236.569868 L87.3801555,236.569868 L88.5771464,234.951448 C88.7085618,234.775079 88.8393962,234.599912 88.9695967,234.425997 L90.1228479,232.895923 L90.1228479,232.895923 L91.2332608,231.441584 L91.2332608,231.441584 L92.6323099,229.634312 L92.6323099,229.634312 L93.9195277,227.995369 L93.9195277,227.995369 L95.3402312,226.212729 L95.3402312,226.212729 L96.5145309,224.760781 L96.5145309,224.760781 L98.1608542,222.76508 L98.1608542,222.76508 C116.75712,202.001377 123.448056,182.005355 125.855455,170.304205 L126.062721,169.263524 L126.062721,169.263524 L126.247659,168.269802 C126.305725,167.946528 126.360282,167.631289 126.411541,167.324295 L126.55564,166.428261 L126.55564,166.428261 L126.681229,165.582954 L126.681229,165.582954 L126.789579,164.789634 L126.789579,164.789634 L126.881963,164.049555 L126.881963,164.049555 L126.959655,163.363975 L126.959655,163.363975 L127.051427,162.44054 L127.051427,162.44054 L127.117297,161.646797 L127.117297,161.646797 L127.172255,160.797545 L127.172255,160.797545 L127.19439,160.32291 L127.19439,160.32291 L127.208442,159.77183 Z M241.395584,159.671685 L138.226506,159.671685 L138.226506,172.703015 L141.23144,172.703015 L141.489576,172.706928 C146.289335,172.852635 150.107691,177.049392 150.24253,182.225784 L150.246215,182.509086 L150.246215,258.974398 L150.242658,259.252238 C150.110169,264.419929 146.293302,268.618124 141.494169,268.766412 L141.23144,268.770466 L138.226506,268.770466 L138.226506,281.711654 L241.395584,281.801823 L241.395584,242.176876 L228.37423,242.176876 L228.291622,242.767935 L228.291622,242.767935 L228.191451,243.372494 L228.191451,243.372494 L228.085311,243.947106 L228.085311,243.947106 L227.998341,244.383373 L227.998341,244.383373 L227.897506,244.859381 L227.897506,244.859381 L227.782037,245.372722 L227.782037,245.372722 L227.651163,245.920984 L227.651163,245.920984 L227.504116,246.501757 L227.504116,246.501757 L227.340127,247.112632 L227.340127,247.112632 L227.158426,247.751199 L227.158426,247.751199 L226.958244,248.415047 L226.958244,248.415047 L226.738811,249.101766 C226.662373,249.334216 226.582599,249.570077 226.499359,249.808946 L226.239118,250.534177 L226.239118,250.534177 L225.957319,251.27505 C222.980169,258.878591 216.54134,268.533472 203.003104,268.842941 L202.331549,268.850576 L189.310223,268.850576 L189.310223,227.262436 L194.318419,227.262436 L194.57305,227.26621 C199.410112,227.409295 204.167922,231.604079 204.330547,236.860971 L204.334839,237.138614 L204.334839,242.086735 L217.356193,242.086735 L217.356193,199.406781 L204.334839,199.406781 L204.334839,204.34487 L204.330547,204.622523 C204.167922,209.879763 199.410112,214.08389 194.57305,214.227297 L194.318419,214.231079 L189.310223,214.231079 L189.310223,172.622904 L202.331549,172.622904 L203.01669,172.630859 C218.257143,172.98667 224.495906,185.198082 226.928093,192.976952 L227.132951,193.651405 C227.165491,193.761758 227.197242,193.87105 227.228219,193.979227 L227.404928,194.614509 L227.404928,194.614509 L227.563862,195.220568 L227.563862,195.220568 L227.705815,195.794918 L227.705815,195.794918 L227.83158,196.335073 L227.83158,196.335073 L227.991608,197.075749 L227.991608,197.075749 L228.080371,197.519537 L228.080371,197.519537 L228.218451,198.275931 L228.218451,198.275931 L228.32527,198.949818 L228.32527,198.949818 L228.37423,199.316639 L241.395584,199.316639 L241.395584,159.671685 Z M428.702517,159.77183 L335.549859,159.77183 L335.402522,159.982506 L335.296773,160.146973 L335.114104,160.451994 L335.114104,160.451994 L334.972519,160.705894 L334.972519,160.705894 L334.818104,161.000444 C334.764781,161.105423 334.709749,161.217206 334.653441,161.335823 L334.481114,161.712207 C334.247383,162.241469 334.000102,162.880554 333.766827,163.631359 L333.594927,164.21544 C331.40556,172.081579 331.20242,190.613177 358.524791,221.568366 L359.621306,222.803166 L359.621306,222.803166 L360.665857,224.063986 L360.665857,224.063986 L361.673202,225.299471 L361.673202,225.299471 L363.235299,227.245036 L363.235299,227.245036 L364.458955,228.792596 L364.458955,228.792596 L365.804636,230.51811 L365.804636,230.51811 L366.881711,231.917447 L366.881711,231.917447 L367.627276,232.895923 L367.627276,232.895923 L368.780526,234.425997 L368.780526,234.425997 L369.968014,236.023684 L369.968014,236.023684 L371.181141,237.680864 L371.181141,237.680864 L371.999888,238.81469 L371.999888,238.81469 L372.823659,239.968942 C372.961231,240.162886 373.098907,240.35758 373.236632,240.552975 L374.063162,241.733353 L374.063162,241.733353 L374.888346,242.92814 L374.888346,242.92814 L375.709635,244.134929 C375.846051,244.336927 375.982198,244.539325 376.118023,244.742073 L376.928693,245.962355 C377.197347,246.370247 377.464291,246.779137 377.729098,247.188624 L378.516691,248.418473 C383.198708,255.803499 387.051223,263.251937 387.597412,268.42482 L387.635221,268.850576 L371.60896,268.850576 L370.924119,268.842628 C356.592745,268.507999 350.629233,257.679403 348.192849,249.926182 L347.974624,249.208742 C347.939926,249.090808 347.906052,248.973728 347.872984,248.857555 L347.684097,248.171803 C347.624259,247.947119 347.567497,247.726474 347.513661,247.510282 L347.360789,246.875477 L347.360789,246.875477 L347.224596,246.269873 L347.224596,246.269873 L347.104194,245.695954 L347.104194,245.695954 L346.998698,245.156205 L346.998698,245.156205 L346.866462,244.416084 L346.866462,244.416084 L346.762778,243.766822 L346.762778,243.766822 L346.663774,243.056967 L346.663774,243.056967 L346.584958,242.366478 L346.584958,242.366478 L346.567924,242.176876 L333.546597,242.176876 L333.546597,281.801823 L427.700873,281.801823 L427.772029,281.718693 L427.772029,281.718693 L427.917285,281.535321 L427.917285,281.535321 L428.049381,281.356531 L428.049381,281.356531 L428.205546,281.131911 C428.233382,281.090627 428.262074,281.047412 428.291547,281.002255 L428.47717,280.707933 L428.47717,280.707933 L428.678001,280.366502 C431.579531,275.25434 437.909648,256.142304 403.891982,216.719437 L402.659837,215.302831 L402.041821,214.673333 L402.041821,214.673333 L401.334983,213.936518 L401.334983,213.936518 L400.398851,212.940459 L400.398851,212.940459 L399.503031,211.968183 L399.503031,211.968183 L398.754556,211.142257 L398.754556,211.142257 L397.946908,210.237438 L397.946908,210.237438 L397.085929,209.257336 L397.085929,209.257336 L396.177463,208.205558 L396.177463,208.205558 L395.548323,207.466336 L395.548323,207.466336 L394.573697,206.303121 L394.573697,206.303121 L393.90586,205.492948 L393.90586,205.492948 L393.225574,204.656266 L393.225574,204.656266 L392.534571,203.794145 L392.534571,203.794145 L391.834581,202.907653 C391.717263,202.757933 391.599643,202.607242 391.481757,202.455602 L390.771534,201.534559 L390.771534,201.534559 L390.056654,200.591819 L390.056654,200.591819 L389.338846,199.628451 L389.338846,199.628451 L388.619843,198.645524 C388.140494,197.983958 387.661502,197.310065 387.185176,196.625272 L386.472974,195.590085 C381.742141,188.63671 377.393294,180.664567 375.734842,173.099367 L375.615539,172.532763 L387.635221,172.622904 L388.439061,172.630859 C406.309699,172.98667 412.936191,185.198082 415.347192,192.976952 L415.549166,193.651405 C415.644862,193.982466 415.732756,194.303966 415.813451,194.614509 L415.96542,195.220568 L415.96542,195.220568 L416.099265,195.794918 L416.099265,195.794918 L416.216059,196.335073 L416.216059,196.335073 L416.361625,197.075749 L416.361625,197.075749 L416.440485,197.519537 L416.440485,197.519537 L416.506048,197.920426 L416.506048,197.920426 L416.601579,198.583565 L416.601579,198.583565 L416.646306,198.949818 L416.646306,198.949818 L416.682835,199.316639 L428.702517,199.316639 L428.702517,159.77183 Z M538.883081,159.77183 L444.728778,159.77183 L444.587569,159.974004 L444.587569,159.974004 L444.483367,160.135728 L444.483367,160.135728 L444.356725,160.343988 L444.356725,160.343988 L444.210862,160.599006 L444.210862,160.599006 L444.048997,160.901003 L444.048997,160.901003 L443.874348,161.250202 C441.354797,166.470428 436.02315,185.63308 467.623805,221.477813 L468.800198,222.803166 L468.800198,222.803166 L469.84475,224.063986 L469.84475,224.063986 L470.852096,225.299471 L470.852096,225.299471 L472.414194,227.245036 L472.414194,227.245036 L473.637852,228.792596 L473.637852,228.792596 L474.983533,230.51811 L474.983533,230.51811 L476.06061,231.917447 L476.06061,231.917447 L476.806176,232.895923 L476.806176,232.895923 L477.959427,234.425997 L477.959427,234.425997 L479.146916,236.023684 L479.146916,236.023684 L479.95335,237.122361 C480.088564,237.307544 480.224146,237.493728 480.360044,237.680864 L481.178791,238.81469 L481.178791,238.81469 L482.002564,239.968942 C482.140136,240.162886 482.277812,240.35758 482.415538,240.552975 L483.242068,241.733353 L483.242068,241.733353 L484.067253,242.92814 L484.067253,242.92814 L484.888543,244.134929 L484.888543,244.134929 L485.703391,245.351315 L485.703391,245.351315 L486.509247,246.574891 C486.642666,246.779286 486.775604,246.98388 486.908008,247.188624 L487.695601,248.418473 C492.377623,255.803499 496.230142,263.251937 496.77633,268.42482 L496.814139,268.850576 L480.787879,268.850576 L480.132489,268.842628 C466.897847,268.519882 460.710416,258.435246 457.912831,250.763191 L457.656527,250.040203 C457.615478,249.921051 457.575255,249.802604 457.535842,249.68491 L457.308968,248.988187 L457.308968,248.988187 L457.100836,248.311895 L457.100836,248.311895 L456.910745,247.658371 L456.910745,247.658371 L456.737993,247.029953 L456.737993,247.029953 L456.581877,246.428977 L456.581877,246.428977 L456.441696,245.85778 L456.441696,245.85778 L456.316747,245.3187 L456.316747,245.3187 L456.206328,244.814073 L456.206328,244.814073 L456.109738,244.346237 L456.109738,244.346237 L455.989244,243.718578 L455.989244,243.718578 L455.895914,243.186843 L455.895914,243.186843 L455.761817,242.297835 L455.761817,242.297835 L455.746843,242.176876 L442.725516,242.176876 L442.725516,281.801823 L536.879791,281.801823 L537.040291,281.60769 L537.040291,281.60769 L537.159021,281.451623 L537.159021,281.451623 L537.303595,281.249982 L537.303595,281.249982 L537.470466,281.002255 L537.470466,281.002255 L537.656089,280.707933 C537.720695,280.602002 537.787835,280.48822 537.856919,280.366502 L538.069412,279.977453 L538.069412,279.977453 L538.290021,279.540275 C541.269826,273.38809 545.468678,254.265025 513.070901,216.719437 L511.832185,215.295981 L511.832185,215.295981 L511.217738,214.641287 L511.217738,214.641287 L510.310492,213.649188 L510.310492,213.649188 L509.514948,212.760586 L509.514948,212.760586 L508.584784,211.701863 L508.584784,211.701863 L507.808072,210.802179 L507.808072,210.802179 L506.97078,209.816624 L506.97078,209.816624 L506.079399,208.749406 L506.079399,208.749406 L505.458302,207.994637 L505.458302,207.994637 L504.817973,207.206691 L504.817973,207.206691 L503.825627,205.965295 L503.825627,205.965295 L503.145632,205.099864 C503.031205,204.95319 502.916257,204.805315 502.800827,204.656266 L502.102804,203.748085 L502.102804,203.748085 L501.395164,202.812964 L501.395164,202.812964 L500.679832,201.852148 L500.679832,201.852148 L499.95873,200.866886 L499.95873,200.866886 L499.233783,199.858424 L499.233783,199.858424 L498.506911,198.828011 L498.506911,198.828011 L497.78004,197.776892 C497.659002,197.600049 497.538044,197.422396 497.417206,197.243957 L496.69394,196.164119 C492.006259,189.086661 487.623274,180.894612 485.921641,173.129232 L485.796075,172.532763 L497.815784,172.622904 L498.589875,172.630859 C516.305794,172.997135 522.582647,185.926657 524.754326,193.651405 L524.930588,194.300365 C524.958346,194.406263 524.98531,194.510995 525.011499,194.614509 L525.159525,195.220568 L525.159525,195.220568 L525.290009,195.794918 L525.290009,195.794918 L525.45509,196.59155 L525.45509,196.59155 L525.546212,197.075749 L525.546212,197.075749 L525.65706,197.725499 L525.65706,197.725499 L525.715233,198.104007 L525.715233,198.104007 L525.813109,198.840841 L525.813109,198.840841 L525.861754,199.316639 L538.883081,199.316639 L538.883081,159.77183 Z M319.523599,159.77183 L254.416911,159.77183 L254.416911,172.703015 L257.421845,172.703015 L257.725694,172.706797 C263.46565,172.850182 267.304165,177.053045 267.434821,182.235441 L267.438265,182.509086 L267.438265,258.974398 L267.434821,259.247544 C267.304165,264.4206 263.46565,268.623301 257.725694,268.766684 L257.421845,268.770466 L254.416911,268.770466 L254.416911,281.711654 L319.523599,281.711654 L319.523599,268.770466 L316.518692,268.770466 L316.264061,268.766684 C311.426998,268.623301 306.669188,264.4206 306.506564,259.247544 L306.502272,258.974398 L306.502272,182.509086 L306.506564,182.235441 C306.669188,177.053045 311.426998,172.850182 316.264061,172.706797 L316.518692,172.703015 L319.523599,172.703015 L319.523599,159.77183 Z" id="Shape"></path>
        </g>
    </g>
</svg>