<?xml version="1.0" encoding="UTF-8"?>
<svg width="200px" height="63px" viewBox="0 0 200 63" version="1.1" xmlns="http://www.w3.org/2000/svg" xmlns:xlink="http://www.w3.org/1999/xlink">
    <title>20200219_Logo_msg</title>
    <g id="Page-1" stroke="none" stroke-width="1" fill="none" fill-rule="evenodd">
        <g id="20200219_Logo_msg" fill="#FFFFFF">
            <path d="M3.55271368e-15,37.75269 C-0.00592833286,31.9982464 4.65415837,27.3285371 10.408602,27.3225954 C16.1630456,27.3166651 20.8327565,31.9767501 20.8387002,37.7311937 C20.8446327,43.4856373 16.1845493,48.1553499 10.4301057,48.16129 L10.4086157,48.16129 C4.66255458,48.1553757 0.00592551895,43.4987511 3.55271368e-15,37.75269 Z" id="Path" fill-rule="nonzero"></path>
            <path d="M27.5376457,0 L27.5376457,47.86021 L36.2688357,47.86021 L36.2688357,7.27957 L56.2795857,7.27957 L56.2795857,47.86021 L65.0322757,47.86021 L65.0322757,7.27957 L78.3440957,7.27957 C82.8280057,7.27957 86.0000057,9.97849 86.0000057,15.88172 L86.0000057,47.914 L94.7419457,47.914 L94.7419457,13.50537 C94.7419457,6.98925 91.3871157,0.09677 82.7419457,0.09677 L27.5376457,0 Z" id="Path" fill-rule="nonzero"></path>
            <path d="M112.236576,0 C102.806466,0 99.9462557,6.26882 99.9462557,13.27957 C99.9462557,20.80645 103.064536,27.08602 111.634426,27.08602 L132.419376,27.08602 C138.784966,27.08602 138.784966,31.98925 138.784966,34.21502 C138.784966,36.44079 138.784966,40.55911 132.580656,40.55911 L100.763456,40.55911 L100.763456,47.86019 L136.247326,47.86019 C145.096786,47.86019 147.623676,42.65588 147.623676,34.27954 C147.623676,24.2903 144.397866,19.80643 136.806476,19.80643 L114.354856,19.80643 C108.688186,19.80643 108.688186,15.98922 108.688186,13.43008 C108.688186,11.44084 109.247326,7.27954 115.322586,7.27954 L145.989256,7.27954 L145.989256,0 L112.236576,0 Z" id="Path" fill-rule="nonzero"></path>
            <path d="M191.301086,40.56989 L173.021516,40.56989 C167.645176,40.56989 162.118296,40.97849 161.978516,33.95699 L161.978516,15.043 C162.279586,9.16128 164.451636,7.07526 173.408626,7.29031 L191.354866,7.29031 L191.354866,40.62365 L191.301086,40.56989 Z M170.311836,0 C162.526886,0 159.623656,1.24732 157.494636,2.94623 C155.161296,4.80645 153.021506,7.16129 152.978506,15.19355 L152.978506,32.46236 C152.978506,40.96773 155.344096,43.34408 157.752706,45.36558 C159.376356,46.52688 162.053776,47.84945 170.333346,47.84945 L191.290346,47.84945 L191.290346,49.69892 C191.290346,53.31182 190.591426,54.88171 186.451636,54.88171 L159.139796,54.88171 L159.139796,62.54838 L189.247316,62.54838 C197.365596,62.54838 200.000006,58.93548 200.000006,52.10752 L200.000006,0 L170.311836,0 Z" id="Shape"></path>
        </g>
    </g>
</svg>