<?xml version="1.0" encoding="UTF-8"?>
<svg width="67px" height="37px" viewBox="0 0 67 37" version="1.1" xmlns="http://www.w3.org/2000/svg" xmlns:xlink="http://www.w3.org/1999/xlink">
    <title>Artboard</title>
    <g id="Artboard" stroke="none" stroke-width="1" fill="none" fill-rule="evenodd">
        <path d="M55.604,9.442 L55.604,30.07 C54.298,26.495 52.292,22.187 49.48,20.257 C53.13,18.896 54.399,15.051 54.375,10.774 C54.365,5.25 49.252,0.834 43.467,0.831 L31.744,0.831 L20.838,12.925 L20.838,0 L0.589,22.746 L0.649,36.704 L13.672,22.726 L13.652,37 L27.311,21.772 L27.311,36.277 L37.246,36.277 L37.246,23.464 L40.202,23.464 C40.338,23.384 41.098,24.051 41.751,25.237 C43.814,28.749 46.148,35.922 46.157,35.932 L46.257,36.277 L65.012,36.277 L65.012,0.065 L55.602,9.442 L55.604,9.442 Z M42.772,14.7120228 L36.944,14.7120228 L36.944,9.247 L42.772,9.247 C44.01,9.247 45.133,10.429 45.133,11.962 C45.133,12.715 44.853,13.454 44.425,13.957 C43.979,14.422 43.389,14.715 42.772,14.7120228" id="path8908" fill="#003867" fill-rule="nonzero"></path>
    </g>
</svg>