<?xml version="1.0" encoding="UTF-8"?>
<svg width="91px" height="45px" viewBox="0 0 91 45" version="1.1" xmlns="http://www.w3.org/2000/svg" xmlns:xlink="http://www.w3.org/1999/xlink">
    <title>Artboard</title>
    <g id="Artboard" stroke="none" stroke-width="1" fill="none" fill-rule="evenodd">
        <g id="sap-logo-svg" fill="#FFFFFF">
            <path d="M90.966,0 L45.974,45 L0,45 L0,0 L90.966,0 Z M12.39,8.37 L12.37,8.37 C8.557,8.37 5.382,9.605 3.414,11.64 C2.042,13.06 1.302,14.866 1.272,16.863 C1.222,19.611 2.229,21.559 4.345,23.116 C6.133,24.426 8.42,25.276 10.435,25.9 C12.92,26.67 14.95,27.34 14.925,28.766 C14.905,29.286 14.709,29.772 14.335,30.164 C13.715,30.804 12.765,31.044 11.45,31.07 C8.913,31.124 7.033,30.725 4.037,28.954 L1.27,34.444 C4.263,36.146 7.44,37 11.05,37 L11.862,36.994 C15.004,36.937 17.554,36.184 19.58,34.554 C19.696,34.461 19.8,34.367 19.908,34.272 L19.568,36.024 L27.148,36 L28.508,32.518 C29.938,33.006 31.564,33.276 33.29,33.276 C34.972,33.276 36.554,33.02 37.957,32.56 L38.905,36 L52.505,36.013 L52.538,28.075 L55.432,28.075 C62.427,28.075 66.562,24.515 66.562,18.545 C66.56,11.896 62.54,9 53.984,9 L45,9 L45.03,30.13 L37.207,8.993 L29.45,8.993 L22.772,26.646 C22.062,22.154 17.418,20.604 13.764,19.443 C11.351,18.668 8.79,17.528 8.816,16.268 C8.836,15.234 10.186,14.275 12.869,14.418 C14.669,14.515 16.259,14.66 19.422,16.188 L22.532,10.768 C19.648,9.3 15.66,8.373 12.39,8.37 Z M33.313,17.605 L36.103,26.585 C35.263,26.885 34.306,27.062 33.289,27.062 C32.245,27.062 31.265,26.88 30.422,26.56 L33.258,17.605 L33.313,17.605 Z M54.511,14.7 C57.141,14.7 59.241,15.576 59.241,18.262 C59.239,21.042 57.141,21.917 54.511,21.917 L52.536,21.917 L52.536,14.7 L54.511,14.7 Z" id="Combined-Shape"></path>
        </g>
    </g>
</svg>