<?xml version="1.0" encoding="UTF-8" standalone="no"?><!DOCTYPE svg PUBLIC "-//W3C//DTD SVG 1.1//EN" "http://www.w3.org/Graphics/SVG/1.1/DTD/svg11.dtd"><svg width="100%" height="100%" viewBox="0 0 200 60" version="1.1" xmlns="http://www.w3.org/2000/svg" xmlns:xlink="http://www.w3.org/1999/xlink" xml:space="preserve" xmlns:serif="http://www.serif.com/" style="fill-rule:evenodd;clip-rule:evenodd;stroke-linejoin:round;stroke-miterlimit:1.41421;"><g id="Layer1"><path d="M14.045,0c4.88,0 8.872,3.992 8.872,8.871c0,4.879 -3.992,8.871 -8.872,8.871c-4.879,0 -8.871,-3.992 -8.871,-8.871c0,-4.879 3.992,-8.871 8.871,-8.871Z" style="fill:#004a92;"/><path d="M98.617,51.114l0.021,0.022l19.474,0c2.154,0 3.928,-1.754 3.928,-3.929c0,-2.155 -1.774,-3.929 -3.928,-3.929l-5.471,0l-14.003,0l0,7.836l-0.021,0Zm35.611,-11.405c0,-0.169 0,-0.317 0,-0.486l0,-0.021c0.063,-2.028 0.507,-3.971 1.288,-5.788c0.803,-2.217 2.091,-4.118 3.739,-5.724c4.794,-5.09 15.059,-8.49 26.338,-8.659l1.014,0c1.162,0.021 2.323,0.063 3.443,0.147c1.753,0.106 3.464,0.317 5.133,0.613c5.576,0.845 9.673,2.492 12.63,4.33c5.281,3.274 6.675,6.59 7.097,8.618c-0.401,0 -5.323,0 -5.323,0l-1.267,0c-0.401,-0.993 -2.556,-5.915 -12.842,-7.118c-0.105,0 -0.19,-0.022 -0.295,-0.022c-0.317,-0.021 -0.634,-0.063 -0.951,-0.084c-0.084,0 -0.148,0 -0.211,-0.021c-1.056,-0.064 -2.133,-0.085 -3.168,-0.064c-1.162,0.043 -2.387,0.169 -3.464,0.317c-0.085,0.021 -0.19,0.021 -0.275,0.043l-0.021,0c-0.697,0.084 -1.394,0.211 -2.07,0.337c-0.507,0.106 -1.014,0.212 -1.5,0.338l-0.021,0c-0.148,0.043 -0.317,0.085 -0.464,0.127l-0.022,0c-0.147,0.042 -0.316,0.085 -0.464,0.127l-0.021,0c-0.148,0.042 -0.317,0.084 -0.465,0.127c-0.169,0.042 -0.317,0.105 -0.465,0.147c-0.148,0.043 -0.295,0.106 -0.443,0.148l-0.021,0c-0.296,0.106 -0.592,0.212 -0.887,0.317c-0.022,0 -0.022,0 -0.043,0.021c-0.295,0.106 -0.57,0.233 -0.845,0.338c-0.021,0 -0.021,0 -0.042,0.021c-0.317,0.127 -0.634,0.275 -0.95,0.423c-5.112,2.429 -8.47,6.21 -8.66,10.497l0,0.275c0,1.901 0.633,3.696 1.753,5.344c0.021,0.021 0.021,0.042 0.042,0.063c0,0.021 0.021,0.021 0.021,0.042c1.458,2.112 3.739,3.929 6.569,5.323c0.042,0.021 0.063,0.042 0.106,0.042l0.021,0c0.127,0.063 0.253,0.127 0.401,0.19c0,0 0.021,0 0.021,0.021c0.127,0.064 0.254,0.106 0.38,0.169c0.022,0 0.043,0.021 0.043,0.021c0.126,0.064 0.253,0.106 0.401,0.169c0.021,0 0.021,0 0.042,0.021c0.127,0.043 0.254,0.106 0.38,0.148c0.022,0 0.043,0.021 0.043,0.021c0.126,0.043 0.274,0.106 0.401,0.148c0.021,0 0.042,0.021 0.042,0.021c0.127,0.043 0.254,0.106 0.402,0.148c0.021,0 0.021,0 0.042,0.021c0.148,0.043 0.274,0.106 0.422,0.148c0.021,0 0.021,0 0.042,0.021c0.127,0.043 0.275,0.085 0.402,0.127c0.021,0 0.021,0 0.042,0.021c0.148,0.042 0.275,0.085 0.422,0.127c0.022,0 0.043,0 0.043,0.021c0.148,0.042 0.274,0.085 0.422,0.127c0.021,0 0.042,0 0.063,0.021c0.148,0.042 0.296,0.084 0.423,0.106c0.021,0 0.021,0 0.042,0.021c0.148,0.042 0.296,0.084 0.465,0.105c0.148,0.043 0.317,0.064 0.465,0.106c0.021,0 0.021,0 0.042,0c0.148,0.042 0.317,0.063 0.464,0.105l0.022,0c0.147,0.022 0.316,0.064 0.464,0.085l0.021,0c0.169,0.021 0.317,0.063 0.486,0.084l0.021,0c0.106,0.022 0.233,0.043 0.359,0.064l0.021,0c0.022,0 0.064,0 0.085,0.021l0.021,0c0.169,0.021 0.317,0.042 0.486,0.084l0.021,0c0.169,0.022 0.338,0.043 0.507,0.064c0.021,0 0.042,0 0.042,0c0.169,0.021 0.338,0.042 0.486,0.063l0.021,0c0.169,0.021 0.338,0.042 0.528,0.064l0.021,0c0.169,0.021 0.338,0.021 0.507,0.042l0.021,0c0.169,0.021 0.359,0.021 0.528,0.042c0.021,0 0.021,0 0.043,0c0.169,0.021 0.338,0.021 0.506,0.021l0.022,0c0.169,0 0.338,0.021 0.528,0.021c0.021,0 0.042,0 0.063,0c0.169,0 0.338,0 0.507,0.021l0.549,0c0.169,0 0.338,0.022 0.507,0l0.739,0c4.415,0.106 8.66,-0.633 13.011,-1.182l2.239,-0.381c0,-1.394 0,-2.471 0,-3.379l0,-0.021l0,-0.021l0,-0.021c-0.021,-2.282 -1.901,-4.14 -4.182,-4.14l-0.127,0c-1.225,0 -0.253,0 -0.274,0l-0.571,0l0,-3.633l11.744,0c1.436,0 2.619,1.183 2.619,2.64l0,14.553c-1.795,0.211 -26.465,5.491 -44.376,1.288c-3.464,-0.655 -6.654,-1.901 -9.378,-3.612c-2.282,-1.372 -4.246,-3.062 -5.724,-5.153c-0.402,-0.528 -0.782,-1.077 -1.12,-1.627c0,0.043 0,0.064 0,0.106c0,5.175 -5.724,10.497 -12.715,10.497c-12.187,0 -51.579,0 -51.579,0l-8.576,-10.729l-24.754,0l-8.681,10.751l-22.283,0l0,-29.824c0,-0.042 0,0.781 0,-0.486c0,-2.302 -1.88,-4.182 -4.183,-4.182c-0.042,0 -0.084,0 -0.147,0c-0.022,0 -0.043,0 -0.043,0c-1.267,0 -0.211,0 -0.232,0l-0.148,0l-0.127,0l-0.274,0l0,-3.633l16.559,0c1.965,0 3.549,1.605 3.549,3.548l0,30.014l19.41,-24.078c0.55,-0.634 0.888,-1.437 0.888,-2.324c0,-1.964 -1.606,-3.548 -3.549,-3.548c-0.021,0 -0.042,0 -0.063,0l-0.613,0l-0.76,0l0,-3.633l16.749,0c1.12,0 2.091,0.528 2.746,1.352l25.938,32.189l0,-25.726c0,-2.302 -1.88,-4.182 -4.183,-4.182l-0.95,0l0,-3.633c0,0 34.238,0.021 41.082,0.021c7.012,0 12.715,4.583 12.715,10.181c0,2.999 -1.627,5.681 -4.203,7.561c2.576,0.739 4.773,1.986 6.294,3.739c-0.148,-0.761 -0.19,-1.5 -0.211,-2.26Zm-35.611,-11.744l0,7.836l19.495,0c2.154,0 3.928,-1.753 3.928,-3.928c0,-2.155 -1.753,-3.929 -3.928,-3.929c-6.506,0.021 -13.011,0.021 -19.495,0.021Zm-53.248,11.955l11.976,0l-5.999,-7.414l-5.977,7.414Z" style="fill:#004a92;"/></g></svg>