<?xml version="1.0" encoding="UTF-8"?>
<svg width="98px" height="30px" viewBox="0 0 98 30" version="1.1" xmlns="http://www.w3.org/2000/svg" xmlns:xlink="http://www.w3.org/1999/xlink">
    <title>logo</title>
    <g id="Page-1" stroke="none" stroke-width="1" fill="none" fill-rule="evenodd">
        <g id="logo" fill="#FFFFFF">
            <path d="M5.6075,0 C8.0475,0 10.0435,1.996 10.0435,4.4355 C10.0435,6.875 8.0475,8.871 5.6075,8.871 C3.168,8.871 1.172,6.875 1.172,4.4355 C1.172,1.996 3.168,0 5.6075,0 Z" id="Path"></path>
            <path d="M47.8935,25.557 L47.904,25.568 L57.641,25.568 C58.718,25.568 59.605,24.691 59.605,23.6035 C59.605,22.526 58.718,21.639 57.641,21.639 L54.9055,21.639 L47.904,21.639 L47.904,25.557 L47.8935,25.557 L47.8935,25.557 Z M65.699,19.8545 C65.699,19.77 65.699,19.696 65.699,19.6115 L65.699,19.601 C65.7305,18.587 65.9525,17.6155 66.343,16.707 C66.7445,15.5985 67.3885,14.648 68.2125,13.845 C70.6095,11.3 75.742,9.6 81.3815,9.5155 L81.8885,9.5155 C82.4695,9.526 83.05,9.547 83.61,9.589 C84.4865,9.642 85.342,9.7475 86.1765,9.8955 C88.9645,10.318 91.013,11.1415 92.4915,12.0605 C95.132,13.6975 95.829,15.3555 96.04,16.3695 C95.8395,16.3695 93.3785,16.3695 93.3785,16.3695 L92.745,16.3695 C92.5445,15.873 91.467,13.412 86.324,12.8105 C86.2715,12.8105 86.229,12.7995 86.1765,12.7995 C86.018,12.789 85.8595,12.768 85.701,12.7575 C85.659,12.7575 85.627,12.7575 85.5955,12.747 C85.0675,12.715 84.529,12.7045 84.0115,12.715 C83.4305,12.7365 82.818,12.7995 82.2795,12.8735 C82.237,12.884 82.1845,12.884 82.142,12.895 L82.1315,12.895 C81.783,12.937 81.4345,13.0005 81.0965,13.0635 C80.843,13.1165 80.5895,13.1695 80.3465,13.2325 L80.336,13.2325 C80.262,13.254 80.1775,13.275 80.104,13.296 L80.093,13.296 C80.0195,13.317 79.935,13.3385 79.861,13.3595 L79.8505,13.3595 C79.7765,13.3805 79.692,13.4015 79.618,13.423 C79.5335,13.444 79.4595,13.4755 79.3855,13.4965 C79.3115,13.518 79.238,13.5495 79.164,13.5705 L79.1535,13.5705 C79.0055,13.6235 78.8575,13.6765 78.71,13.729 C78.699,13.729 78.699,13.729 78.6885,13.7395 C78.541,13.7925 78.4035,13.856 78.266,13.9085 C78.2555,13.9085 78.2555,13.9085 78.245,13.919 C78.0865,13.9825 77.928,14.0565 77.77,14.1305 C75.214,15.345 73.535,17.2355 73.44,19.379 L73.44,19.5165 C73.44,20.467 73.7565,21.3645 74.3165,22.1885 C74.327,22.199 74.327,22.2095 74.3375,22.22 C74.3375,22.2305 74.348,22.2305 74.348,22.241 C75.077,23.297 76.2175,24.2055 77.6325,24.9025 C77.6535,24.913 77.664,24.9235 77.6855,24.9235 L77.696,24.9235 C77.7595,24.955 77.8225,24.987 77.8965,25.0185 C77.8965,25.0185 77.907,25.0185 77.907,25.029 C77.9705,25.061 78.034,25.082 78.097,25.1135 C78.108,25.1135 78.1185,25.124 78.1185,25.124 C78.1815,25.156 78.245,25.177 78.319,25.2085 C78.3295,25.2085 78.3295,25.2085 78.34,25.219 C78.4035,25.2405 78.467,25.272 78.53,25.293 C78.541,25.293 78.5515,25.3035 78.5515,25.3035 C78.6145,25.325 78.6885,25.3565 78.752,25.3775 C78.7625,25.3775 78.773,25.388 78.773,25.388 C78.8365,25.4095 78.9,25.441 78.974,25.462 C78.9845,25.462 78.9845,25.462 78.995,25.4725 C79.069,25.494 79.132,25.5255 79.206,25.5465 C79.2165,25.5465 79.2165,25.5465 79.227,25.557 C79.2905,25.5785 79.3645,25.5995 79.428,25.6205 C79.4385,25.6205 79.4385,25.6205 79.449,25.631 C79.523,25.652 79.5865,25.6735 79.66,25.6945 C79.671,25.6945 79.6815,25.6945 79.6815,25.705 C79.7555,25.726 79.8185,25.7475 79.8925,25.7685 C79.903,25.7685 79.9135,25.7685 79.924,25.779 C79.998,25.8 80.072,25.821 80.1355,25.832 C80.146,25.832 80.146,25.832 80.1565,25.8425 C80.2305,25.8635 80.3045,25.8845 80.389,25.895 C80.463,25.9165 80.5475,25.927 80.6215,25.948 C80.632,25.948 80.632,25.948 80.6425,25.948 C80.7165,25.969 80.801,25.9795 80.8745,26.0005 L80.8855,26.0005 C80.959,26.0115 81.0435,26.0325 81.1175,26.043 L81.128,26.043 C81.2125,26.0535 81.2865,26.0745 81.371,26.085 L81.3815,26.085 C81.4345,26.096 81.498,26.1065 81.561,26.117 L81.5715,26.117 C81.5825,26.117 81.6035,26.117 81.614,26.1275 L81.6245,26.1275 C81.709,26.138 81.783,26.1485 81.8675,26.1695 L81.878,26.1695 C81.9625,26.1805 82.047,26.191 82.1315,26.2015 C82.142,26.2015 82.1525,26.2015 82.1525,26.2015 C82.237,26.212 82.3215,26.2225 82.3955,26.233 L82.406,26.233 C82.4905,26.2435 82.575,26.254 82.67,26.265 L82.6805,26.265 C82.765,26.2755 82.8495,26.2755 82.934,26.286 L82.9445,26.286 C83.029,26.2965 83.124,26.2965 83.2085,26.307 C83.219,26.307 83.219,26.307 83.23,26.307 C83.3145,26.3175 83.399,26.3175 83.483,26.3175 L83.494,26.3175 C83.5785,26.3175 83.663,26.328 83.758,26.328 C83.7685,26.328 83.779,26.328 83.7895,26.328 C83.874,26.328 83.9585,26.328 84.043,26.3385 L84.3175,26.3385 C84.402,26.3385 84.4865,26.3495 84.571,26.3385 L84.9405,26.3385 C87.148,26.3915 89.2705,26.022 91.446,25.7475 L92.5655,25.557 C92.5655,24.86 92.5655,24.3215 92.5655,23.8675 L92.5655,23.857 L92.5655,23.8465 L92.5655,23.836 C92.555,22.695 91.615,21.766 90.4745,21.766 L90.411,21.766 C89.7985,21.766 90.2845,21.766 90.274,21.766 L89.9885,21.766 L89.9885,19.9495 L95.8605,19.9495 C96.5785,19.9495 97.17,20.541 97.17,21.2695 L97.17,28.546 C96.2725,28.6515 83.9375,31.2915 74.982,29.19 C73.25,28.8625 71.655,28.2395 70.293,27.384 C69.152,26.698 68.17,25.853 67.431,24.8075 C67.23,24.5435 67.04,24.269 66.871,23.994 C66.871,24.0155 66.871,24.026 66.871,24.047 C66.871,26.6345 64.009,29.2955 60.5135,29.2955 C54.42,29.2955 34.724,29.2955 34.724,29.2955 L30.436,23.931 L18.059,23.931 L13.7185,29.3065 L2.577,29.3065 L2.577,14.3945 C2.577,14.3735 2.577,14.785 2.577,14.1515 C2.577,13.0005 1.637,12.0605 0.4855,12.0605 C0.4645,12.0605 0.4435,12.0605 0.412,12.0605 C0.401,12.0605 0.3905,12.0605 0.3905,12.0605 C-0.243,12.0605 0.285,12.0605 0.2745,12.0605 L0.2005,12.0605 L0.137,12.0605 L0,12.0605 L0,10.244 L8.2795,10.244 C9.262,10.244 10.054,11.0465 10.054,12.018 L10.054,27.025 L19.759,14.986 C20.034,14.669 20.203,14.2675 20.203,13.824 C20.203,12.842 19.4,12.05 18.4285,12.05 C18.418,12.05 18.4075,12.05 18.397,12.05 L18.0905,12.05 L17.7105,12.05 L17.7105,10.2335 L26.085,10.2335 C26.645,10.2335 27.1305,10.4975 27.458,10.9095 L40.427,27.004 L40.427,14.141 C40.427,12.99 39.487,12.05 38.3355,12.05 L37.8605,12.05 L37.8605,10.2335 C37.8605,10.2335 54.9795,10.244 58.4015,10.244 C61.9075,10.244 64.759,12.5355 64.759,15.3345 C64.759,16.834 63.9455,18.175 62.6575,19.115 C63.9455,19.4845 65.044,20.108 65.8045,20.9845 C65.7305,20.604 65.7095,20.2345 65.699,19.8545 L65.699,19.8545 Z M47.8935,13.9825 L47.8935,17.9005 L57.641,17.9005 C58.718,17.9005 59.605,17.024 59.605,15.9365 C59.605,14.859 58.7285,13.972 57.641,13.972 C54.388,13.9825 51.1355,13.9825 47.8935,13.9825 Z M21.2695,19.96 L27.2575,19.96 L24.258,16.253 L21.2695,19.96 L21.2695,19.96 Z" id="Shape"></path>
        </g>
    </g>
</svg>