<?xml version="1.0" encoding="UTF-8"?>
<svg width="249px" height="246px" viewBox="0 0 249 246" version="1.1" xmlns="http://www.w3.org/2000/svg" xmlns:xlink="http://www.w3.org/1999/xlink">
    <title>Shape</title>
    <g id="Page-1" stroke="none" stroke-width="1" fill="none" fill-rule="evenodd">
        <g id="Artboard" fill="#FFFFFF">
            <path d="M128.5,0 C152.801964,0 174.291508,5.28823422 192.143359,15.0394314 C209.995211,24.7906286 224.209371,39.0047887 233.960569,56.8566406 C243.711766,74.7084925 249,96.198036 249,120.5 C249,144.801964 243.711766,166.291508 233.960569,184.143359 C232.420527,186.962767 230.769166,189.691439 229.009735,192.326125 L245.880465,209.196699 L209.818019,245.259145 L191.088414,226.529359 C173.447183,235.917239 152.325164,241 128.5,241 L120.5,241 C96.198036,241 74.7084925,235.711766 56.8566406,225.960569 C39.0047887,216.209371 24.7906286,201.995211 15.0394314,184.143359 C5.28823422,166.291508 0,144.801964 0,120.5 C0,96.198036 5.28823422,74.7084925 15.0394314,56.8566406 C24.7906286,39.0047887 39.0047887,24.7906286 56.8566406,15.0394314 C74.7084925,5.28823422 96.198036,0 120.5,0 L128.5,0 Z M154,59 L96,59 C78.5036191,59 64.2868724,73.0417829 64.0042871,90.4708215 L64,91 L64,149 C64,166.496381 78.0417829,180.713128 95.4708215,180.995713 L96,181 L154,181 C171.496381,181 185.713128,166.958217 185.995713,149.529179 L186,149 L186,91 C186,73.326888 171.673112,59 154,59 Z M154,73 C163.830669,73 171.820682,80.8807833 171.997024,90.6693348 L172,91 L172,149 L171.997024,149.330665 C171.822685,159.007983 164.011251,166.820645 154.334415,166.996956 L154,167 L96,167 L95.6693348,166.997024 C85.9920169,166.822685 78.1793551,159.011251 78.0030442,149.334415 L78,149 L78,91 L78.0029763,90.6693348 C78.1773146,80.9920169 85.9887492,73.1793551 95.6655854,73.0030442 L96,73 L154,73 Z" id="Shape"></path>
        </g>
    </g>
</svg>