<?xml version="1.0" encoding="UTF-8"?>
<svg width="71px" height="64px" viewBox="0 0 71 64" version="1.1" xmlns="http://www.w3.org/2000/svg" xmlns:xlink="http://www.w3.org/1999/xlink">
    <title>Artboard</title>
    <g id="Artboard" stroke="none" stroke-width="1" fill="none" fill-rule="evenodd">
        <g id="eisenlogo" transform="translate(1.000000, 1.000000)">
            <polygon id="Path" fill="#FFFFFF" fill-rule="nonzero" points="19.64 17.24 38.93 17.24 38.93 22.03 25.82 22.03 25.82 28.76 38.09 28.76 38.09 33.53 25.82 33.53 25.82 41.22 39.37 41.22 39.37 46.03 19.64 46.03"></polygon>
            <path d="M62.8888428,25.44 C62.6488428,22.54 61.0988428,21.1 58.1088428,21.1 C55.8388428,21.1 53.5188428,22.3 53.5188428,24.81 C53.5188428,27.92 56.3088428,28.27 58.7888428,28.87 C63.1688428,29.99 69.6188428,31.22 69.6188428,37 C69.6188428,44.13 63.4088428,46.61 57.2288428,46.61 C50.6588428,46.61 45.9888428,44.05 46.2288428,36.8 L52.5288428,36.8 C52.2888428,39.99 54.1188428,42.14 57.3488428,42.14 C59.8188428,42.14 63.0888428,41.38 63.0888428,38.32 C63.0888428,34.93 58.9788428,34.69 56.5088428,34.05 C52.5088428,33.05 46.9888428,31.22 46.9888428,26.12 C46.9888428,19.55 53.0488428,16.64 58.9388428,16.64 C64.5188428,16.64 68.8688428,19.64 68.8688428,25.44 L62.8888428,25.44 Z" id="Path" fill="#FFFFFF" fill-rule="nonzero"></path>
            <polyline id="Path" stroke="#FFFFFF" stroke-width="2" points="70 0 0 0 0 62.95"></polyline>
        </g>
    </g>
</svg>